<svg xmlns="http://www.w3.org/2000/svg" version="1.1" xmlns:xlink="http://www.w3.org/1999/xlink" xmlns:svgjs="http://svgjs.com/svgjs" width="1440" height="560" preserveAspectRatio="none" viewBox="0 0 1440 560"><g mask="url(&quot;#SvgjsMask1003&quot;)" fill="none"><rect width="1440" height="560" x="0" y="0" fill="rgba(124, 139, 92, 1)" data-darkreader-inline-fill="" style="--darkreader-inline-fill:#6d7a51;"></rect><path d="M 0,116 C 57.6,132.8 172.8,207.4 288,200 C 403.2,192.6 460.8,83.2 576,79 C 691.2,74.8 748.8,194 864,179 C 979.2,164 1036.8,5.4 1152,4 C 1267.2,2.6 1382.4,138.4 1440,172L1440 560L0 560z" fill="rgba(124, 139, 92, 1)" data-darkreader-inline-fill="" style="--darkreader-inline-fill:#6d7a51;"></path><path d="M 0,523 C 96,479.4 288,299.6 480,305 C 672,310.4 768,533.2 960,550 C 1152,566.8 1344,421.2 1440,389L1440 560L0 560z" fill="rgba(124, 139, 92, 1)" data-darkreader-inline-fill="" style="--darkreader-inline-fill:#6d7a51;"></path></g><defs><mask id="SvgjsMask1003"><rect width="1440" height="560" fill="#ffffff" data-darkreader-inline-fill="" style="--darkreader-inline-fill:#1a1d1e;"></rect></mask></defs></svg>